<?xml version="1.0" encoding="UTF-8"?>
<svg id="a" data-name="Слой_2" xmlns="http://www.w3.org/2000/svg" viewBox="0 0 358.41 289.05">
  <defs>
    <style>
      .b {
        fill: #fff;
      }
    </style>
  </defs>
  <path class="b" d="M143.32,251.09c-58.21,0-105.57-47.72-105.57-106.37s47.36-106.37,105.57-106.37,105.57,47.72,105.57,106.37-47.36,106.37-105.57,106.37ZM143.32,54.35c-49.39,0-89.57,40.54-89.57,90.37s40.18,90.37,89.57,90.37,89.57-40.54,89.57-90.37-40.18-90.37-89.57-90.37Z"/>
  <path class="b" d="M129.62,136.72h-39.82c3.28-21.9,19.8-40.14,41.68-44.86,4.32-.93,7.06-5.19,6.13-9.51-.93-4.32-5.19-7.06-9.51-6.13-31.82,6.87-54.91,35.68-54.91,68.5,0,13.89,4.03,27.32,11.65,38.83,1.54,2.32,4.08,3.58,6.68,3.58,1.52,0,3.05-.43,4.41-1.33,3.68-2.44,4.69-7.4,2.25-11.09-4.41-6.66-7.26-14.15-8.41-22h39.84c4.42,0,8-3.58,8-8s-3.58-8-8-8Z"/>
  <path class="b" d="M204.09,109.86c-2.19-3.84-7.08-5.18-10.91-2.98-3.84,2.19-5.17,7.08-2.99,10.91,3.16,5.55,5.31,11.63,6.36,17.94h-36.24l-.06-51.98c0-4.97-4.03-8.99-9-8.99h-.01c-4.97,0-9,4.04-8.99,9.01l.15,121.56c0,4.97,4.03,8.99,9,8.99h.01c4.97,0,9-4.04,8.99-9.01l-.06-51.58h36.22c-1.24,7.49-4.03,14.63-8.25,21-2.44,3.68-1.43,8.65,2.25,11.09,1.36.9,2.89,1.33,4.41,1.33,2.59,0,5.14-1.26,6.68-3.58,7.62-11.51,11.65-24.94,11.65-38.83,0-12.24-3.19-24.3-9.21-34.86Z"/>
  <path class="b" d="M144.15,289.05c-20.28,0-40.54-4.37-59.39-12.88-23.87-10.78-44.3-27.66-59.09-48.83C9.93,204.81,1.09,177.89.11,149.5-1.98,96.81,26.11,45.75,71.67,19.46,96.19,5.22,123.66-1.42,151.11.25c25.66,1.57,50.71,10.25,72.42,25.12,46.3,31.69,69.71,85.55,61.1,140.6-.41,3.03-.96,6.05-1.5,8.96-1.51,8.22-2.93,15.98-1.07,23.11l.04.14c2.18,9.05,8.87,16.95,17.45,20.6l.12.05c12.35,5.51,28.27,1.4,36.26-9.36l.14-.18c3.3-4.18,5.21-9.8,6.65-14.74,1.24-4.24,5.67-6.68,9.92-5.44,4.24,1.23,6.68,5.67,5.44,9.92-1.86,6.39-4.43,13.77-9.38,20.08-12.49,16.71-36.31,22.88-55.49,14.36-13.29-5.68-23.24-17.44-26.65-31.48-2.72-10.53-.83-20.85.84-29.95.53-2.88,1.03-5.61,1.39-8.29l.03-.18c7.68-48.92-13.13-96.81-54.32-125-40.75-27.88-92.4-29.9-134.81-5.27C39.19,56.68,14.24,102.05,16.1,148.9c1.7,49.34,30.54,92.5,75.25,112.69,45.01,20.32,94.75,13.66,133.04-17.82,3.41-2.8,8.46-2.31,11.26,1.1,2.81,3.41,2.31,8.46-1.1,11.26-21.79,17.91-47.62,28.99-74.7,32.04-5.22.59-10.46.88-15.7.88Z"/>
</svg>
